<mxfile host="app.diagrams.net" modified="2023-05-22T20:41:07.346Z" agent="Mozilla/5.0 (Windows NT 10.0; Win64; x64; rv:109.0) Gecko/20100101 Firefox/114.0" etag="zbrwfIMrYNzvHXDv951u" version="21.3.2" type="device">
  <diagram name="PÃ¡gina-1" id="FZhGrl_LEn8XAQCvx8l2">
    <mxGraphModel dx="1028" dy="544" grid="1" gridSize="10" guides="1" tooltips="1" connect="1" arrows="1" fold="1" page="1" pageScale="1" pageWidth="827" pageHeight="1169" math="0" shadow="0">
      <root>
        <mxCell id="0" />
        <mxCell id="1" parent="0" />
        <mxCell id="Oml1hXxkctcq-CNdprv6-9" style="edgeStyle=orthogonalEdgeStyle;rounded=0;orthogonalLoop=1;jettySize=auto;html=1;entryX=0;entryY=0.5;entryDx=0;entryDy=0;" edge="1" parent="1" source="Oml1hXxkctcq-CNdprv6-1" target="Oml1hXxkctcq-CNdprv6-8">
          <mxGeometry relative="1" as="geometry" />
        </mxCell>
        <mxCell id="Oml1hXxkctcq-CNdprv6-12" style="edgeStyle=orthogonalEdgeStyle;rounded=0;orthogonalLoop=1;jettySize=auto;html=1;exitX=1;exitY=0.75;exitDx=0;exitDy=0;entryX=0;entryY=0.5;entryDx=0;entryDy=0;" edge="1" parent="1" source="Oml1hXxkctcq-CNdprv6-1" target="Oml1hXxkctcq-CNdprv6-10">
          <mxGeometry relative="1" as="geometry" />
        </mxCell>
        <mxCell id="Oml1hXxkctcq-CNdprv6-1" value="&lt;div&gt;REGRA DE NEGOCIO&lt;/div&gt;&lt;div&gt;useCase&lt;/div&gt;" style="rounded=0;whiteSpace=wrap;html=1;" vertex="1" parent="1">
          <mxGeometry x="360" y="200" width="120" height="60" as="geometry" />
        </mxCell>
        <mxCell id="Oml1hXxkctcq-CNdprv6-3" style="edgeStyle=orthogonalEdgeStyle;rounded=0;orthogonalLoop=1;jettySize=auto;html=1;entryX=0;entryY=0.5;entryDx=0;entryDy=0;" edge="1" parent="1" source="Oml1hXxkctcq-CNdprv6-2" target="Oml1hXxkctcq-CNdprv6-1">
          <mxGeometry relative="1" as="geometry" />
        </mxCell>
        <mxCell id="Oml1hXxkctcq-CNdprv6-2" value="PRIMARY ADAPTER" style="rounded=0;whiteSpace=wrap;html=1;" vertex="1" parent="1">
          <mxGeometry x="200" y="200" width="120" height="60" as="geometry" />
        </mxCell>
        <mxCell id="Oml1hXxkctcq-CNdprv6-5" style="edgeStyle=orthogonalEdgeStyle;rounded=0;orthogonalLoop=1;jettySize=auto;html=1;" edge="1" parent="1" source="Oml1hXxkctcq-CNdprv6-4" target="Oml1hXxkctcq-CNdprv6-2">
          <mxGeometry relative="1" as="geometry" />
        </mxCell>
        <mxCell id="Oml1hXxkctcq-CNdprv6-4" value="&lt;div&gt;Ex: API Gateway&lt;/div&gt;" style="rounded=0;whiteSpace=wrap;html=1;" vertex="1" parent="1">
          <mxGeometry x="20" y="200" width="120" height="60" as="geometry" />
        </mxCell>
        <mxCell id="Oml1hXxkctcq-CNdprv6-7" style="edgeStyle=orthogonalEdgeStyle;rounded=0;orthogonalLoop=1;jettySize=auto;html=1;entryX=0;entryY=0.75;entryDx=0;entryDy=0;" edge="1" parent="1" source="Oml1hXxkctcq-CNdprv6-6" target="Oml1hXxkctcq-CNdprv6-1">
          <mxGeometry relative="1" as="geometry" />
        </mxCell>
        <mxCell id="Oml1hXxkctcq-CNdprv6-6" value="PRIMARY ADAPTER" style="rounded=0;whiteSpace=wrap;html=1;" vertex="1" parent="1">
          <mxGeometry x="200" y="300" width="120" height="60" as="geometry" />
        </mxCell>
        <mxCell id="Oml1hXxkctcq-CNdprv6-14" style="edgeStyle=orthogonalEdgeStyle;rounded=0;orthogonalLoop=1;jettySize=auto;html=1;entryX=0;entryY=0.5;entryDx=0;entryDy=0;" edge="1" parent="1" source="Oml1hXxkctcq-CNdprv6-8" target="Oml1hXxkctcq-CNdprv6-13">
          <mxGeometry relative="1" as="geometry" />
        </mxCell>
        <mxCell id="Oml1hXxkctcq-CNdprv6-8" value="SECONDARY ADAPTER" style="rounded=0;whiteSpace=wrap;html=1;" vertex="1" parent="1">
          <mxGeometry x="530" y="200" width="120" height="60" as="geometry" />
        </mxCell>
        <mxCell id="Oml1hXxkctcq-CNdprv6-18" style="edgeStyle=orthogonalEdgeStyle;rounded=0;orthogonalLoop=1;jettySize=auto;html=1;entryX=0;entryY=0.5;entryDx=0;entryDy=0;" edge="1" parent="1" source="Oml1hXxkctcq-CNdprv6-10" target="Oml1hXxkctcq-CNdprv6-17">
          <mxGeometry relative="1" as="geometry" />
        </mxCell>
        <mxCell id="Oml1hXxkctcq-CNdprv6-10" value="SECONDARY ADAPTER" style="rounded=0;whiteSpace=wrap;html=1;" vertex="1" parent="1">
          <mxGeometry x="530" y="300" width="120" height="60" as="geometry" />
        </mxCell>
        <mxCell id="Oml1hXxkctcq-CNdprv6-13" value="Ex: DynamoDb" style="rounded=0;whiteSpace=wrap;html=1;" vertex="1" parent="1">
          <mxGeometry x="690" y="200" width="120" height="60" as="geometry" />
        </mxCell>
        <mxCell id="Oml1hXxkctcq-CNdprv6-16" style="edgeStyle=orthogonalEdgeStyle;rounded=0;orthogonalLoop=1;jettySize=auto;html=1;entryX=0;entryY=0.5;entryDx=0;entryDy=0;" edge="1" parent="1" source="Oml1hXxkctcq-CNdprv6-15" target="Oml1hXxkctcq-CNdprv6-6">
          <mxGeometry relative="1" as="geometry" />
        </mxCell>
        <mxCell id="Oml1hXxkctcq-CNdprv6-15" value="Ex: Invocation" style="rounded=0;whiteSpace=wrap;html=1;" vertex="1" parent="1">
          <mxGeometry x="20" y="300" width="120" height="60" as="geometry" />
        </mxCell>
        <mxCell id="Oml1hXxkctcq-CNdprv6-17" value="Ex: Fila qualquer" style="rounded=0;whiteSpace=wrap;html=1;" vertex="1" parent="1">
          <mxGeometry x="690" y="300" width="120" height="60" as="geometry" />
        </mxCell>
        <mxCell id="Oml1hXxkctcq-CNdprv6-19" value="DRIVING" style="swimlane;whiteSpace=wrap;html=1;" vertex="1" parent="1">
          <mxGeometry x="10" y="70" width="330" height="370" as="geometry" />
        </mxCell>
        <mxCell id="Oml1hXxkctcq-CNdprv6-21" value="DRIVEN" style="swimlane;whiteSpace=wrap;html=1;" vertex="1" parent="1">
          <mxGeometry x="490" y="70" width="330" height="370" as="geometry" />
        </mxCell>
      </root>
    </mxGraphModel>
  </diagram>
</mxfile>
